<svg id="Group_2019" data-name="Group 2019" xmlns="http://www.w3.org/2000/svg" width="16.755" height="22.012" viewBox="0 0 16.755 22.012">
  <g id="Group_6" data-name="Group 6" transform="translate(0 0)">
    <path id="Path_210" data-name="Path 210" d="M636.285,171.966l-4.654-4.586a.468.468,0,0,0-.329-.134h-9.774a1.85,1.85,0,0,0-1.862,1.834v18.344a1.85,1.85,0,0,0,1.862,1.834H634.56a1.85,1.85,0,0,0,1.862-1.834V172.29A.454.454,0,0,0,636.285,171.966Zm-4.518-3.155,3.065,3.02H632.7a.925.925,0,0,1-.931-.917Zm3.723,18.612a.925.925,0,0,1-.931.917H621.529a.925.925,0,0,1-.931-.917V169.08a.925.925,0,0,1,.931-.917h9.308v2.752a1.85,1.85,0,0,0,1.862,1.834h2.793Z" transform="translate(-619.667 -167.246)" fill="#28648b"/>
    <path id="Path_211" data-name="Path 211" d="M658.815,298.042H648.577a.459.459,0,1,0,0,.917h10.239a.459.459,0,1,0,0-.917Z" transform="translate(-645.319 -285.201)" fill="#28648b"/>
    <path id="Path_212" data-name="Path 212" d="M658.815,270.014H648.577a.459.459,0,1,0,0,.917h10.239a.459.459,0,1,0,0-.917Z" transform="translate(-645.319 -259.925)" fill="#28648b"/>
    <path id="Path_213" data-name="Path 213" d="M658.815,326.069H648.577a.459.459,0,1,0,0,.917h10.239a.459.459,0,1,0,0-.917Z" transform="translate(-645.319 -310.477)" fill="#28648b"/>
    <path id="Path_214" data-name="Path 214" d="M654.161,354.1h-5.585a.459.459,0,1,0,0,.917h5.585a.459.459,0,1,0,0-.917Z" transform="translate(-645.319 -335.753)" fill="#28648b"/>
    <path id="Path_215" data-name="Path 215" d="M695.519,242.445a.462.462,0,0,0,.465.459h5.585a.459.459,0,1,0,0-.917h-5.585A.462.462,0,0,0,695.519,242.445Z" transform="translate(-688.072 -234.649)" fill="#28648b"/>
    <g id="Group_5" data-name="Group 5" transform="translate(2.561 4.24)">
      <path id="Path_216" data-name="Path 216" d="M649.877,213.394a.1.1,0,0,1,.034.091,1.165,1.165,0,0,1-.231.658,1.469,1.469,0,0,1-.63.476,2.431,2.431,0,0,1-.959.176,1.93,1.93,0,0,1-1.249-.373,1.517,1.517,0,0,1-.541-1.051h-.4a.143.143,0,0,1-.1-.042.139.139,0,0,1-.043-.1v-.339a.147.147,0,0,1,.043-.109.144.144,0,0,1,.1-.042h.381V212.5H645.9a.143.143,0,0,1-.1-.042.139.139,0,0,1-.043-.1v-.345a.14.14,0,0,1,.043-.1.144.144,0,0,1,.1-.042h.4a1.528,1.528,0,0,1,.538-1.058,1.928,1.928,0,0,1,1.252-.373,2.431,2.431,0,0,1,.959.176,1.469,1.469,0,0,1,.63.476,1.165,1.165,0,0,1,.231.657v.012a.1.1,0,0,1-.04.082.136.136,0,0,1-.089.033H649.2a.186.186,0,0,1-.117-.033.219.219,0,0,1-.068-.112.749.749,0,0,0-.323-.455,1.148,1.148,0,0,0-.6-.139.8.8,0,0,0-.892.733h1.015a.155.155,0,0,1,.108.042.135.135,0,0,1,.046.1v.345a.14.14,0,0,1-.043.1.151.151,0,0,1-.111.042h-1.04v.236h1.04a.152.152,0,0,1,.111.042.147.147,0,0,1,.043.109v.339a.14.14,0,0,1-.043.1.151.151,0,0,1-.111.042h-1.021a.806.806,0,0,0,.9.727,1.147,1.147,0,0,0,.6-.139.749.749,0,0,0,.323-.455.22.22,0,0,1,.068-.112.186.186,0,0,1,.117-.033h.584A.137.137,0,0,1,649.877,213.394Z" transform="translate(-645.753 -210.431)" fill="#28648b"/>
    </g>
  </g>
</svg>
