<svg xmlns="http://www.w3.org/2000/svg" width="17.743" height="15.82" viewBox="0 0 17.743 15.82">
  <path id="Path_19282" data-name="Path 19282" d="M5805.514,3231.891a5.041,5.041,0,0,0-1.954-3.264,5.3,5.3,0,0,0-3.414-1.1c-1.363.03-5.116.015-10.239,0a2,2,0,0,0-.209.005,2.07,2.07,0,0,0-.99.353,1.856,1.856,0,0,0-.7.834,1.672,1.672,0,0,0-.11.638v13.986l6.376-4.8h6.224a5.811,5.811,0,0,0,1.755-.409,5.642,5.642,0,0,0,1.9-1.252,5.547,5.547,0,0,0,1.357-2.574A5.725,5.725,0,0,0,5805.514,3231.891Zm-2.708,1.269a2.594,2.594,0,0,1-1.28,2.147,3.077,3.077,0,0,1-1.457.462h-6.815l-2.58,2.024q.01-3.784.018-7.567h9.523a2.312,2.312,0,0,1,1.89.746,2.548,2.548,0,0,1,.526.912A3.075,3.075,0,0,1,5802.806,3233.161Z" transform="translate(-5787.896 -3227.525)" fill="#143d66"/>
</svg>
