<svg xmlns="http://www.w3.org/2000/svg" width="91.791" height="40.097" viewBox="0 0 91.791 40.097">
  <g id="Group_1863" data-name="Group 1863" transform="translate(0.999 1)">
    <rect id="Rectangle_898" data-name="Rectangle 898" width="89.791" height="38.097" rx="7.194" transform="translate(0.001 0)" fill="none" stroke="#fff" stroke-miterlimit="10" stroke-width="2"/>
    <line id="Line_36" data-name="Line 36" x2="89.791" transform="translate(0.001 4.016)" fill="none" stroke="#fff" stroke-miterlimit="10" stroke-width="1"/>
    <line id="Line_37" data-name="Line 37" y2="33.51" transform="translate(18.388 4.016)" fill="none" stroke="#fff" stroke-miterlimit="10" stroke-width="1"/>
    <rect id="Rectangle_899" data-name="Rectangle 899" width="14.304" height="2.178" rx="1.089" transform="translate(22.756 5.841)" fill="#fff"/>
    <rect id="Rectangle_900" data-name="Rectangle 900" width="30.888" height="2.178" rx="1.089" transform="translate(37.059 8.952)" fill="#fff"/>
    <rect id="Rectangle_901" data-name="Rectangle 901" width="22.327" height="2.178" rx="1.089" transform="translate(63.448 12.062)" fill="#fff"/>
    <rect id="Rectangle_902" data-name="Rectangle 902" width="22.327" height="2.178" rx="1.089" transform="translate(23.167 17.226)" fill="#fff"/>
    <rect id="Rectangle_903" data-name="Rectangle 903" width="12.982" height="2.178" rx="1.089" transform="translate(35.624 20.462)" fill="#fff"/>
    <rect id="Rectangle_904" data-name="Rectangle 904" width="20.839" height="2.178" rx="1.089" transform="translate(44.896 23.448)" fill="#fff"/>
    <rect id="Rectangle_905" data-name="Rectangle 905" width="26.575" height="2.178" rx="1.089" transform="translate(59.2 26.434)" fill="#fff"/>
    <line id="Line_38" data-name="Line 38" x2="11.213" transform="translate(3.574 6.442)" fill="none" stroke="#fff" stroke-linecap="round" stroke-miterlimit="10" stroke-width="3"/>
    <line id="Line_39" data-name="Line 39" x2="11.213" transform="translate(3.793 8.35)" fill="none" stroke="#fff" stroke-linecap="round" stroke-miterlimit="10" stroke-width="3"/>
    <line id="Line_40" data-name="Line 40" x2="11.213" transform="translate(3.985 17.538)" fill="none" stroke="#fff" stroke-linecap="round" stroke-miterlimit="10" stroke-width="3"/>
    <line id="Line_41" data-name="Line 41" x2="11.213" transform="translate(4.177 19.591)" fill="none" stroke="#fff" stroke-linecap="round" stroke-miterlimit="10" stroke-width="3"/>
    <path id="Path_18987" data-name="Path 18987" d="M0,0,4.648.643l.643,4.648L.643,4.648Z" transform="translate(47.576 9.894) rotate(-45)" fill="none"/>
    <path id="Path_18988" data-name="Path 18988" d="M0,0,4.648.643l.643,4.648L.643,4.648Z" transform="translate(70.87 27.73) rotate(-45)" fill="none"/>
    <line id="Line_42" data-name="Line 42" y2="24.347" transform="translate(51.318 13.749)" fill="none" stroke="#fff" stroke-miterlimit="10" stroke-width="1" stroke-dasharray="5 3"/>
    <line id="Line_43" data-name="Line 43" y2="8.38" transform="translate(74.611 29.717)" fill="none" stroke="#fff" stroke-miterlimit="10" stroke-width="1" stroke-dasharray="5 3"/>
  </g>
</svg>
