<svg xmlns="http://www.w3.org/2000/svg" width="128.675" height="73.015" viewBox="0 0 128.675 73.015">
  <g id="Group_1831" data-name="Group 1831" transform="translate(1 1)">
    <rect id="Rectangle_898" data-name="Rectangle 898" width="126.675" height="71.015" rx="7.194" transform="translate(0 0)" fill="none" stroke="#fff" stroke-miterlimit="10" stroke-width="2"/>
    <line id="Line_36" data-name="Line 36" x2="126.675" transform="translate(0 7.486)" fill="none" stroke="#fff" stroke-miterlimit="10" stroke-width="1"/>
    <line id="Line_37" data-name="Line 37" y2="62.466" transform="translate(25.941 7.486)" fill="none" stroke="#fff" stroke-miterlimit="10" stroke-width="1"/>
    <rect id="Rectangle_899" data-name="Rectangle 899" width="20.18" height="4.059" rx="2.03" transform="translate(32.102 10.888)" fill="#fff"/>
    <rect id="Rectangle_900" data-name="Rectangle 900" width="43.576" height="4.059" rx="2.03" transform="translate(52.282 16.687)" fill="#fff"/>
    <rect id="Rectangle_901" data-name="Rectangle 901" width="31.499" height="4.059" rx="2.03" transform="translate(89.51 22.485)" fill="#fff"/>
    <rect id="Rectangle_902" data-name="Rectangle 902" width="31.499" height="4.059" rx="2.03" transform="translate(32.682 32.111)" fill="#fff"/>
    <rect id="Rectangle_903" data-name="Rectangle 903" width="18.315" height="4.059" rx="2.03" transform="translate(50.257 38.142)" fill="#fff"/>
    <rect id="Rectangle_904" data-name="Rectangle 904" width="29.399" height="4.059" rx="2.03" transform="translate(63.338 43.709)" fill="#fff"/>
    <rect id="Rectangle_905" data-name="Rectangle 905" width="37.491" height="4.059" rx="2.03" transform="translate(83.517 49.276)" fill="#fff"/>
    <line id="Line_38" data-name="Line 38" x2="15.819" transform="translate(5.041 12.009)" fill="none" stroke="#fff" stroke-linecap="round" stroke-miterlimit="10" stroke-width="3"/>
    <line id="Line_39" data-name="Line 39" x2="15.819" transform="translate(5.35 15.565)" fill="none" stroke="#fff" stroke-linecap="round" stroke-miterlimit="10" stroke-width="3"/>
    <line id="Line_40" data-name="Line 40" x2="15.819" transform="translate(5.621 32.691)" fill="none" stroke="#fff" stroke-linecap="round" stroke-miterlimit="10" stroke-width="3"/>
    <line id="Line_41" data-name="Line 41" x2="15.819" transform="translate(5.892 36.518)" fill="none" stroke="#fff" stroke-linecap="round" stroke-miterlimit="10" stroke-width="3"/>
    <rect id="Rectangle_906" data-name="Rectangle 906" width="7.465" height="7.465" transform="translate(67.119 18.444) rotate(-45)" fill="#fff"/>
    <rect id="Rectangle_907" data-name="Rectangle 907" width="7.465" height="7.465" transform="translate(99.98 51.69) rotate(-45)" fill="#fff"/>
    <line id="Line_42" data-name="Line 42" y2="45.385" transform="translate(72.398 25.63)" fill="none" stroke="#fff" stroke-miterlimit="10" stroke-width="3" stroke-dasharray="5 3"/>
    <line id="Line_43" data-name="Line 43" y2="15.621" transform="translate(105.259 55.394)" fill="none" stroke="#fff" stroke-miterlimit="10" stroke-width="3" stroke-dasharray="5 3"/>
  </g>
</svg>
